<?xml version="1.0" encoding="utf-8"?>
<!-- Generator: Adobe Illustrator 25.4.4, SVG Export Plug-In . SVG Version: 6.00 Build 0)  -->
<svg version="1.1" id="Calque_1" xmlns="http://www.w3.org/2000/svg" xmlns:xlink="http://www.w3.org/1999/xlink" x="0px" y="0px"
	 viewBox="0 0 527.7 593.6" style="enable-background:new 0 0 527.7 593.6;" xml:space="preserve">
<g>
	<path d="M480.1,118.2c-0.1-0.5-0.2-1.5-0.5-2.4c-4.3-14.6-14-25.2-28.8-31.4c-2.6-1.1-6.6-1.4-9.2-0.4c-12.4,4.6-20.6,13.2-24.5,25
		c-2.2,6.6,3.4,13.3,10.6,12c13.7-2.4,26-0.1,38.1,6.4C472,130.8,479.9,125.6,480.1,118.2z"/>
	<path d="M435.9,144.9c9.5,23.4,39.1,34.4,61.9,23.5c3.1-1.5,6.8-5.2,7.1-8.1c1.2-10.5-3.3-19.5-10.8-27.9
		C478,149.6,459,153.9,435.9,144.9z"/>
	<path d="M490.1,118.1c2.9-2,8.3-5.4,13.4-9.2c3.4-2.6,6.8-5.4,9.4-8.7c3.1-4,4.4-8.7,2.2-14.2C499.1,94.2,491,106,490.1,118.1z"/>
	<path d="M435.9,359.5l65.7-15.4c-3.9-16.7-9.9-32.7-17.7-47.5l-59.9,31.1C429.4,337.6,433.4,348.3,435.9,359.5z"/>
	<path d="M320.4,258.7c7.4,0.6,14.6,1.9,21.6,3.8l17.3-65.3c-16.1-4.2-32.9-6.5-50.3-6.5l-0.6,67.6
		C312.4,258.2,316.4,258.3,320.4,258.7z"/>
	<path d="M526.7,6.7c-1.4-7.5-8.3-8.7-14.3-3.5c-16.8,14.4-34.3,16.7-54.7,7.6c-24.5-10.9-50-13-75.1-3.3
		c-16.3,6.3-31.5,31.3-107.5,36C119.9,43.4-5.7,172.6,0.2,329.1c5.4,143.6,122.3,259.7,265.9,264.3c37.2,1.2,72.8-5.1,105.4-17.3
		c6.7-2.2,13.2-4.8,19.5-7.8l-28.2-61.9c-4.9,2.3-9.9,4.5-15,6.4c-22.7,8.5-47.2,13.2-72.8,13.2c-58.9,0-112.2-24.7-150-64.3
		C89.5,424.4,67.6,374,67.6,318.5c0-114.4,93.1-207.5,207.5-207.5c83.1-4.8,90.6-14.9,97.5-21.1c1.3-1.2,1.3-4.6,0.5-6.6
		c-7.5-19.9-4.9-38.2,9.9-54.1c2.9-3.1,6.6-5.8,10.8-7.2c17.2-5.9,31.6,7.3,29,23.4c-1.2,7.2-3.2,14.2-4.6,20.5
		c11.2,0.7,21.4,0.8,31.4,2.1c6.7,0.9,13.1,3.5,19.6,5.5c12.8,3.8,23.7,1.5,33.6-7.2c12.2-10.7,20.8-23.3,23.9-38.5
		C528,20.9,528,13.5,526.7,6.7z"/>
	<path d="M222.3,268.4c5.1,8,15.5,10.5,23.7,6c8.2-4.5,16.8-8.2,25.9-10.9l-18.8-64.9c-2.4,0.7-4.7,1.4-7.1,2.2
		C218.1,210.2,206.5,243.5,222.3,268.4z"/>
	<path d="M471.9,500.4l-55.6-38.3c-6.4,9.3-14,17.7-22.5,25.1l44.5,50.8C451,526.9,462.3,514.3,471.9,500.4z"/>
	<path d="M506.3,400.3l-67.4-4.1c-0.7,11.5-2.8,22.7-6.3,33.2l64.3,20.7C502.1,434.2,505.3,417.5,506.3,400.3z"/>
	<path d="M375.9,276.8c9.7,5.9,18.6,13,26.5,21.1l48.4-47c-11.8-12.2-25.1-22.8-39.6-31.6L375.9,276.8z"/>
</g>
</svg>
